# AST/ASF file generated using VICON BodyLanguage
# -----------------------------------------------
:version 1.10
:name VICON
:units
  mass 1.0
  length 0.45
  angle deg
:documentation
   .ast/.asf automatically generated from VICON data using
   VICON BodyBuilder and BodyLanguage model FoxedUp or BRILLIANT.MOD
:root
   order TX TY TZ RX RY RZ
   axis XYZ
   position 0 0 0  
   orientation 0 0 0 
:bonedata
  begin
     id 1 
     name lhipjoint
     direction 0.722297 -0.617336 0.311742 
     length 2.6635 
     axis 0 0 0  XYZ
  end
  begin
     id 2 
     name lfemur
     direction 0.34202 -0.939693 0  
     length 7.39349  
     axis 0 0 20  XYZ
    dof rx ry rz
    limits (-160.0 20.0)
           (-70.0 70.0)
           (-60.0 70.0)
  end
  begin
     id 3 
     name ltibia
     direction 0.34202 -0.939693 0   
     length 7.36294   
     axis 0 0 20   XYZ
    dof rx
    limits (-10.0 170.0)
  end
  begin
     id 4 
     name lfoot
     direction 0.104879 -0.288152 0.951824   
     length 2.16981   
     axis -90 7.62852e-016 20   XYZ
    dof rx rz
    limits (-45.0 90.0)
           (-70.0 20.0)
  end
  begin
     id 5 
     name ltoes
     direction 1.53586e-011 -4.21895e-011 1   
     length 1.08218   
     axis -90 7.62852e-016 20   XYZ
    dof rx
    limits (-90.0 20.0)
  end
  begin
     id 6 
     name rhipjoint
     direction -0.75102 -0.589393 0.297631   
     length 2.78977  
     axis 0 0 0  XYZ 
  end
  begin
     id 7 
     name rfemur
     direction -0.34202 -0.939693 0   
     length 7.46076   
     axis 0 0 -20   XYZ
    dof rx ry rz
    limits (-160.0 20.0)
           (-70.0 70.0)
           (-70.0 60.0)
  end
  begin
     id 8 
     name rtibia
     direction -0.34202 -0.939693 0   
     length 7.31726   
     axis 0 0 -20   XYZ
    dof rx
    limits (-10.0 170.0)
 end
 begin
     id 9 
     name rfoot
     direction -0.107991 -0.296704 0.948844   
     length 2.09388  
     axis -90 -7.62852e-016 -20   XYZ
    dof rx rz
    limits (-45.0 90.0)
           (-20.0 70.0)
  end
  begin
     id 10 
     name rtoes
     direction -1.53559e-011 -4.21911e-011 1   
     length 1.04433   
     axis -90 -7.62852e-016 -20   XYZ
    dof rx
    limits (-90.0 20.0)
  end
  begin
     id 11 
     name lowerback
     direction 0.0165164 0.98272 0.184358   
     length 1.71896   
     axis 0 0 0   XYZ
    dof rx ry rz
    limits (-20.0 45.0)
           (-30.0 30.0)
           (-30.0 30.0)
  end
  begin
     id 12 
     name upperback
     direction -0.00887249 0.992297 0.123566   
     length 1.71504   
     axis 0 0 0   XYZ
    dof rx ry rz
    limits (-20.0 45.0)
           (-30.0 30.0)
           (-30.0 30.0)
  end
  begin
     id 13 
     name thorax
     direction -0.0157026 0.998908 0.0440032   
     length 1.77022   
     axis 0 0 0   XYZ
    dof rx ry rz
    limits (-20.0 45.0)
           (-30.0 30.0)
           (-30.0 30.0)
  end
  begin
     id 14 
     name lowerneck
     direction -0.0238856 0.998137 0.0561411   
     length 1.89341   
     axis 0 0 0   XYZ
    dof rx ry rz
    limits (-20.0 45.0)
           (-30.0 30.0)
           (-30.0 30.0)
  end
  begin
     id 15 
     name upperneck
     direction 0.0276574 0.952253 -0.304056   
     length 1.86999   
     axis 0 0 0   XYZ
    dof rx ry rz
    limits (-20.0 45.0)
           (-30.0 30.0)
           (-30.0 30.0)
  end
  begin
     id 16
     name head
     direction 0.00800083 0.994258 -0.106712  
     length 1.91492  
     axis 0 0 0   XYZ
    dof rx ry rz
    limits (-20.0 45.0)
           (-30.0 30.0)
           (-30.0 30.0)
  end
  begin
     id 17 
     name lclavicle
     direction 0.97203 0.225407 0.06595  
     length 3.34889  
     axis 0 0 0   XYZ
    dof ry rz
    limits (-20.0 10.0)
           (0.0 20.0)
  end
  begin
     id 18 
     name lhumerus
     direction 1 -4.48973e-011 2.20267e-027   
     length 4.85645   
     axis 180 -30 -90   XYZ
    dof rx ry rz
    limits (-60.0 90.0)
           (-90.0 90.0)
           (-90.0 90.0)
  end
  begin
     id 19
     name lradius
     direction 1 -4.4897e-011 4.60472e-027   
     length 2.79874   
     axis 180 -30 -90   XYZ
    dof rx
    limits (-10.0 170.0)
  end
  begin
     id 20
     name lwrist
     direction 1 -4.48952e-011 1.14928e-026   
     length 1.39937   
     axis -6.29373e-015 90 90   XYZ
    dof ry
    limits (-180.0 0.0)
 end
  begin
     id 21 
     name lhand
     direction 1 -4.48967e-011 2.29886e-026   
     length 0.573398   
     axis -1.46689e-014 90 90   XYZ
    dof rx rz
    limits (-90.0 90.0)
           (-45.0 45.0)
  end
  begin
     id 22 
     name lfingers
     direction 1 -4.48955e-011 4.59726e-026   
     length 0.462289   
     axis -2.93383e-014 90 90   XYZ
    dof rx
    limits (0.0 90.0)
  end
  begin
     id 23
     name lthumb
     direction 0.707107 -6.34866e-011 0.707107   
     length 0.663757   
     axis -90 45 5.69224e-014   XYZ
    dof rx rz
    limits (-45.0 45.0)
           (-45.0 45.0)
  end
  begin
     id 24 
     name rclavicle
     direction -0.981571 0.157346 0.108443   
     length 3.35257  
     axis 0 0 0   XYZ 
    dof ry rz
    limits (-10.0 20.0)
           (-20.0 0.0)
  end
  begin
     id 25 
     name rhumerus
     direction -1 -4.48967e-011 8.58308e-029  
     length 4.67018   
     axis 180 30 90   XYZ
    dof rx ry rz
    limits (-90.0 60.0)
           (-90.0 90.0)
           (-90.0 90.0)
  end
  begin
     id 26 
     name rradius
     direction -1 -4.48958e-011 4.52548e-027   
     length 2.65534   
     axis 180 30 90   XYZ
    dof rx
    limits (-10.0 170.0)
  end
  begin
     id 27 
     name rwrist
     direction -1 -4.48977e-011 1.14952e-026   
     length 1.32767   
     axis -6.29373e-015 -90 -90   XYZ
    dof ry
    limits (-180.0 0.0)
  end
  begin
     id 28
     name rhand
     direction -1 -4.48924e-011 2.29804e-026   
     length 0.594069   
     axis -1.46689e-014 -90 -90   XYZ
    dof rx rz
    limits (-90.0 90.0)
           (-45.0 45.0)
  end
  begin
     id 29
     name rfingers
     direction -1 -4.48998e-011 4.59888e-026   
     length 0.478954   
     axis -2.93383e-014 -90 -90   XYZ
    dof rx
    limits (0.0 90.0)
  end
  begin
     id 30
     name rthumb
     direction -0.707107 -6.34933e-011 0.707107   
     length 0.687685   
     axis -90 -45 -5.69224e-014   XYZ
    dof rx rz
    limits (-45.0 45.0)
           (-45.0 45.0)
  end
:hierarchy
  begin
    root lhipjoint rhipjoint lowerback
    lhipjoint lfemur
    lfemur ltibia
    ltibia lfoot
    lfoot ltoes
    rhipjoint rfemur
    rfemur rtibia
    rtibia rfoot
    rfoot rtoes
    lowerback upperback
    upperback thorax
    thorax lowerneck lclavicle rclavicle
    lowerneck upperneck
    upperneck head
    lclavicle lhumerus
    lhumerus lradius
    lradius lwrist
    lwrist lhand lthumb
    lhand lfingers
    rclavicle rhumerus
    rhumerus rradius
    rradius rwrist
    rwrist rhand rthumb
    rhand rfingers
  end

#!OML:ASF E:\pregnant2\Project 1\Capture day 1\Session 1\pregnant2.ASF
:FULLY-SPECIFIED
:DEGREES
511
root 9.25158 11.2618 18.0961 25.7673 0.630572 -5.60492
lowerback -45.8056 1.29362 6.27571
upperback -15.368 -1.44136 3.47411
thorax 3.69255 -0.770795 -0.0228471
lowerneck -11.2525 -2.80793 -2.47071
upperneck 46.9203 -4.79633 1.23268
head 20.641 -2.21047 0.124767
rclavicle -6.75868e-015 -3.97569e-015
rhumerus -43.0598 34.2768 -82.945
rradius 71.2907
rwrist 27.7647
rhand 14.9645 -12.5086
rfingers 7.12502
rthumb 39.8182 -37.7893
lclavicle -6.75868e-015 -3.97569e-015
lhumerus -44.887 -5.91906 83.3828
lradius 69.9057
lwrist -32.6665
lhand 18.9142 26.2849
lfingers 7.12502
lthumb 43.5222 50.3437
rfemur -104.919 7.97788 24.5397
rtibia 74.6071
rfoot 6.48163 -13.0897
rtoes 7.78703
lfemur -131.941 -31.6659 -52.329
ltibia 89.4123
lfoot 15.8706 -14.6852
ltoes -24.1115
512
root 9.2505 11.2607 18.0976 25.7992 0.631795 -5.58457
lowerback -45.8467 1.28389 6.23741
upperback -15.3672 -1.43882 3.46025
thorax 3.70492 -0.768185 -0.0173092
lowerneck -11.2593 -2.80562 -2.48283
upperneck 47.0011 -4.76464 1.17618
head 20.6998 -2.20739 0.103284
rclavicle 1.94809e-014 4.77083e-015
rhumerus -43.0695 34.2463 -82.949
rradius 71.3122
rwrist 27.7457
rhand 14.9763 -12.5042
rfingers 7.12502
rthumb 39.8294 -37.7815
lclavicle 1.94809e-014 4.77083e-015
lhumerus -44.8801 -5.94577 83.372
lradius 69.906
lwrist -32.6844
lhand 18.9042 26.2726
lfingers 7.12502
lthumb 43.513 50.3347
rfemur -104.97 7.97644 24.5011
rtibia 74.6329
rfoot 6.47055 -13.1045
rtoes 7.80029
lfemur -131.983 -31.647 -52.3176
ltibia 89.3523
lfoot 15.856 -14.7297
ltoes -24.4923
513
root 9.24916 11.2594 18.0993 25.8236 0.629635 -5.5666
lowerback -45.8737 1.27482 6.20062
upperback -15.3659 -1.43494 3.44544
thorax 3.71444 -0.765198 -0.0131365
lowerneck -11.2677 -2.80233 -2.49104
upperneck 47.0828 -4.72912 1.11282
head 20.7594 -2.20304 0.0781557
rclavicle 2.34566e-014 -3.02153e-014
rhumerus -43.072 34.2142 -82.9546
rradius 71.3317
rwrist 27.7256
rhand 14.9952 -12.5017
rfingers 7.12502
rthumb 39.8471 -37.7737
lclavicle 2.34566e-014 -3.02153e-014
lhumerus -44.8714 -5.97458 83.3562
lradius 69.9077
lwrist -32.704
lhand 18.8976 26.2561
lfingers 7.12502
lthumb 43.5068 50.3205
rfemur -105.014 7.97945 24.4648
rtibia 74.6633
rfoot 6.45479 -13.121
rtoes 7.81514
lfemur -132.031 -31.6091 -52.2923
ltibia 89.2818
lfoot 15.833 -14.7813
ltoes -24.9901
514
root 9.24763 11.2576 18.1011 25.8322 0.623102 -5.55164
lowerback -45.8747 1.26624 6.16623
upperback -15.3649 -1.42941 3.43079
thorax 3.71729 -0.761812 -0.00951282
lowerneck -11.2749 -2.79723 -2.49556
upperneck 47.1652 -4.68847 1.04292
head 20.8188 -2.19693 0.0498899
rclavicle -3.10104e-014 2.70347e-014
rhumerus -43.0684 34.182 -82.9611
rradius 71.3472
rwrist 27.7062
rhand 15.0081 -12.498
rfingers 7.12502
rthumb 39.8592 -37.7664
lclavicle -3.10104e-014 2.70347e-014
lhumerus -44.8595 -6.00531 83.3368
lradius 69.9089
lwrist -32.7219
lhand 18.8936 26.2387
lfingers 7.12502
lthumb 43.5031 50.3045
rfemur -105.044 7.98738 24.4328
rtibia 74.6993
rfoot 6.43559 -13.1382
rtoes 7.82879
lfemur -132.08 -31.5475 -52.2544
ltibia 89.2009
lfoot 15.7979 -14.8194
ltoes -25.4832
515
root 9.24594 11.2553 18.1028 25.8204 0.6128 -5.54141
lowerback -45.8405 1.2573 6.13625
upperback -15.365 -1.4235 3.41834
thorax 3.71038 -0.758735 -0.00585119
lowerneck -11.2783 -2.78869 -2.49918
upperneck 47.242 -4.64117 0.971805
head 20.8727 -2.18834 0.0221808
rclavicle 3.57812e-015 -4.77083e-015
rhumerus -43.0568 34.1518 -82.9667
rradius 71.3601
rwrist 27.6875
rhand 15.0237 -12.4963
rfingers 7.12502
rthumb 39.874 -37.7603
lclavicle 3.57812e-015 -4.77083e-015
lhumerus -44.8433 -6.03421 83.314
lradius 69.9096
lwrist -32.7347
lhand 18.8932 26.2177
lfingers 7.12502
lthumb 43.5026 50.2836
rfemur -105.055 8.00016 24.408
rtibia 74.7406
rfoot 6.41295 -13.1557
rtoes 7.84383
lfemur -132.125 -31.4606 -52.2043
ltibia 89.1107
lfoot 15.746 -14.814
ltoes -25.8222
516
root 9.24422 11.2527 18.1047 25.8003 0.598687 -5.53293
lowerback -45.7889 1.24742 6.10913
upperback -15.3659 -1.41897 3.40998
thorax 3.69828 -0.756479 9.46692e-005
lowerneck -11.2781 -2.77703 -2.50258
upperneck 47.3152 -4.58544 0.894724
head 20.9225 -2.17736 -0.00698522
rclavicle 1.59028e-015 -1.59028e-014
rhumerus -43.0375 34.1285 -82.9693
rradius 71.3705
rwrist 27.6705
rhand 15.0406 -12.4949
rfingers 7.12502
rthumb 39.8899 -37.7541
lclavicle 1.59028e-015 -1.59028e-014
lhumerus -44.8234 -6.05585 83.2903
lradius 69.9087
lwrist -32.7437
lhand 18.8975 26.197
lfingers 7.12502
lthumb 43.5067 50.2614
rfemur -105.059 8.01645 24.3866
rtibia 74.7862
rfoot 6.3876 -13.1709
rtoes 7.85425
lfemur -132.167 -31.3589 -52.1469
ltibia 89.009
lfoot 15.6801 -14.7856
ltoes -26.0601
517
root 9.24258 11.25 18.1063 25.7629 0.580221 -5.52742
lowerback -45.7052 1.23413 6.08603
upperback -15.3687 -1.41834 3.40912
thorax 3.67619 -0.75632 0.0102856
lowerneck -11.271 -2.75814 -2.50746
upperneck 47.3825 -4.51423 0.812824
head 20.9652 -2.16144 -0.0351716
rclavicle 5.1684e-015 -3.65764e-014
rhumerus -43.0104 34.1166 -82.9683
rradius 71.3798
rwrist 27.6539
rhand 15.0608 -12.4932
rfingers 7.12502
rthumb 39.9089 -37.7467
lclavicle 5.1684e-015 -3.65764e-014
lhumerus -44.8022 -6.0632 83.2652
lradius 69.9075
lwrist -32.7478
lhand 18.8997 26.1746
lfingers 7.12502
lthumb 43.5087 50.2383
rfemur -105.045 8.03624 24.3706
rtibia 74.8347
rfoot 6.36279 -13.1835
rtoes 7.85418
lfemur -132.2 -31.2309 -52.0792
ltibia 88.8896
lfoot 15.6023 -14.7164
ltoes -26.0711
